<svg xmlns="http://www.w3.org/2000/svg" width="20" height="20" viewBox="0 0 24 24" fill="none">
  <path d="M22.54 6.42C22.4212 5.94541 22.1793 5.51057 21.8387 5.15941C21.498 4.80824 21.0708 4.55318 20.6 4.42C18.88 4 12 4 12 4C12 4 5.12 4 3.4 4.46C2.92925 4.59318 2.50198 4.84824 2.16135 5.19941C1.82072 5.55057 1.57879 5.98541 1.46 6.46C1 8.18 1 11.75 1 11.75C1 11.75 1 15.32 1.46 17.04C1.59096 17.5039 1.8383 17.9222 2.17817 18.2586C2.51803 18.5949 2.93883 18.838 3.4 18.96C5.12 19.4 12 19.4 12 19.4C12 19.4 18.88 19.4 20.6 18.96C21.0708 18.8268 21.498 18.5718 21.8387 18.2206C22.1793 17.8694 22.4212 17.4346 22.54 16.96C23 15.24 23 11.67 23 11.67C23 11.67 23 8.1 22.54 6.42Z" stroke="currentColor" stroke-width="2"/>
  <path d="M9.75 15.02L15.5 11.75L9.75 8.48V15.02Z" stroke="currentColor" stroke-width="2"/>
</svg>