<svg xmlns="http://www.w3.org/2000/svg" width="951" height="139" fill="none">
            <path fill="#313E3C" fill-rule="evenodd"
              d="M905.931 55.47c-7.567-11.027-15.674-16.337-28.398-16.337-22.766 0-39.455 23.152-39.455 50.85 0 27.696 16.689 47.31 39.455 47.31 12.73 0 25.395-3.62 30.855-17.119v13.623H951V0h-45.069v55.47Zm-21.27 31.638c0-10.903 5.032-19.744 11.246-19.744s11.252 8.841 11.252 19.744c0 10.904-5.044 19.745-11.252 19.745-6.208 0-11.246-8.847-11.246-19.745Zm-52.31 13.179v-7.531c0-38.002-22.914-54.239-52.855-54.239-32.968 0-53.034 20.8-53.034 50.582 0 32.337 21.389 49.433 53.034 49.433 16.38.812 30.392-1.067 45.947-6.133v-24.154c-18.546 8.765-56.66 7.094-54.559-7.952l61.467-.006Zm-61.989-20.936c.125-10.08 3.211-17.895 11.775-17.895 7.222 0 10.7 8.16 10.433 17.895h-22.208Zm-660.96-27.056 31.947 39.186-21.312.095 33.645 46.02h57.449l-32.238-45.913h42.22l-64.95-87.18h-93.45L0 92.087h43.556L10.41 137.584h61.015l28.298-46.097H78.856l30.546-39.192ZM77.74 47.957l31.306-40.87 32.648 40.87H77.74Zm575.511 88.904v.035h2.397V76.78c0-3.97 3.306-7.2 7.419-7.26 4.196-.058 7.638 3.218 7.638 7.26v60.116h44.914V67.939c0-23.65-20.908-28.847-31.377-28.847-13.062 0-22.938 6.3-29.846 14.145-.35.385-1.448 2.388-1.448 2.388-5.751-13.274-20.41-16.569-28.737-16.569-14.154 0-24.736 7.396-31.656 16.124V43.608h-42.38v93.253H595.6v-60.11c0-3.971 3.305-7.2 7.43-7.26 4.196-.06 7.626 3.218 7.626 7.26v60.116l42.595-.006Zm-284.8-.753h44.636V77.23c0-3.97 3.246-7.194 7.293-7.259a7.358 7.358 0 0 1 5.268 2.066 7.326 7.326 0 0 1 2.234 5.193v58.878h45.069v-67.72c0-23.649-21.49-28.84-31.769-28.84-13.899 0-24.297 7.39-31.104 16.118V43.613h-41.627v92.495Zm-15.573-92.643h-45.122v58.132a7.758 7.758 0 0 1-2.313 5.459 7.779 7.779 0 0 1-5.498 2.238h-.118c-4.362.024-7.911-3.425-7.911-7.697V43.465h-44.915v66.926c0 23.448 21.015 28.609 31.52 28.609 14.214 0 25.217-4.847 32.333-17.001v14.512h42.024V43.465Zm136.863 93.271h45.193V43.489h-45.193v93.247Zm.118-104.654h45.146V1.126h-45.276l.13 30.956Z"
              clip-rule="evenodd" />
          </svg>
